# xmcd
#
# Track frame offsets:
#	150
#	19010
#	36885
#	55872
#	75477
#	98575
#	115122
#	140672
#	163975
#	189035
#	205860
#	231547
#	253235
#	270225
#
# Disc length: 3976 seconds
#
# Revision: 9
# Processed by: cddbd v1.5.2PL0 Copyright (c) Steve Scherf et al.
# Submitted via: audiograbber 1.83.01
#
DISCID=b70f860e
DTITLE=Luther Allison - A Legend Never Dies - Essential Recordings 1976-1997 (C
DTITLE=D 7) - Reckless [remastered 2017]
DYEAR=1997
DGENRE=Blues
TTITLE0=I'm Back
TTITLE1=Drownin' At The Bottom
TTITLE2=There Comes A Time
TTITLE3=Cancel My Check
TTITLE4=Just As I Am [duet with Marla Glen]
TTITLE5=You Can Run But You Can't Hide
TTITLE6=Playin' A Losin' Game
TTITLE7=Will It Ever Change?
TTITLE8=Living In The House Of The Blues
TTITLE9=You Can, You Can
TTITLE10=It's A Blues Thing
TTITLE11=Pain In The Streets
TTITLE12=Low Down And Dirty
TTITLE13=You're Gonna Make Me Cry
EXTD=
EXTT0=
EXTT1=
EXTT2=
EXTT3=
EXTT4=
EXTT5=
EXTT6=
EXTT7=
EXTT8=
EXTT9=
EXTT10=
EXTT11=
EXTT12=
EXTT13=
PLAYORDER=
